<?xml version="1.0" encoding="UTF-8" standalone="no"?>
<!-- Created with Inkscape (http://www.inkscape.org/) -->

<svg
   version="1.1"
   id="svg2"
   width="1024"
   height="1024"
   viewBox="0 0 1024 1024"
   sodipodi:docname="01_Logo.svg"
   inkscape:version="1.1.2 (b8e25be833, 2022-02-05)"
   xmlns:inkscape="http://www.inkscape.org/namespaces/inkscape"
   xmlns:sodipodi="http://sodipodi.sourceforge.net/DTD/sodipodi-0.dtd"
   xmlns="http://www.w3.org/2000/svg"
   xmlns:svg="http://www.w3.org/2000/svg">
  <defs
     id="defs6">
    <inkscape:perspective
       sodipodi:type="inkscape:persp3d"
       inkscape:vp_x="0 : 512 : 1"
       inkscape:vp_y="0 : 1000 : 0"
       inkscape:vp_z="1024 : 512 : 1"
       inkscape:persp3d-origin="512 : 341.33333 : 1"
       id="perspective90135" />
  </defs>
  <sodipodi:namedview
     id="namedview4"
     pagecolor="#ffffff"
     bordercolor="#666666"
     borderopacity="1.0"
     inkscape:pageshadow="2"
     inkscape:pageopacity="0.0"
     inkscape:pagecheckerboard="0"
     showgrid="false"
     inkscape:zoom="0.45996094"
     inkscape:cx="-81.528662"
     inkscape:cy="560.91719"
     inkscape:window-width="1920"
     inkscape:window-height="1009"
     inkscape:window-x="-8"
     inkscape:window-y="-8"
     inkscape:window-maximized="1"
     inkscape:current-layer="g8" />
  <g
     inkscape:groupmode="layer"
     inkscape:label="Image"
     id="g8">
    <rect
       style="fill:#646ecb;fill-opacity:1;stroke:none;stroke-width:30.5703;stroke-miterlimit:4;stroke-dasharray:none;stroke-opacity:1"
       id="rect156915"
       width="1024"
       height="1024"
       x="0"
       y="0" />
    <g
       aria-label="AyaExpTech"
       id="text1950"
       style="font-size:100px;font-family:Ubuntu;-inkscape-font-specification:Ubuntu;letter-spacing:0.2px;fill:#ffffff;stroke-width:2.53789">
      <path
         d="m 290.6,443.5 q -1.7,-4.5 -3.2,-8.8 -1.5,-4.4 -3.1,-8.9 h -31.4 l -6.3,17.7 h -10.1 q 4,-11 7.5,-20.3 3.5,-9.4 6.8,-17.8 3.4,-8.4 6.7,-16 3.3,-7.7 6.9,-15.2 h 8.9 q 3.6,7.5 6.9,15.2 3.3,7.6 6.6,16 3.4,8.4 6.9,17.8 3.5,9.3 7.5,20.3 z m -9.1,-25.7 q -3.2,-8.7 -6.4,-16.8 -3.1,-8.2 -6.5,-15.7 -3.5,7.5 -6.7,15.7 -3.1,8.1 -6.2,16.8 z"
         id="path19" />
      <path
         d="m 304.06001,453.2 q 1.1,0.5 2.8,0.9 1.8,0.5 3.5,0.5 5.5,0 8.6,-2.5 3.1,-2.4 5.6,-7.9 -6.3,-12 -11.8,-25.4 -5.4,-13.5 -9,-27.3 h 10 q 1.1,4.5 2.6,9.7 1.6,5.2 3.5,10.7 1.9,5.5 4.1,11 2.2,5.5 4.6,10.6 3.8,-10.5 6.6,-20.8 2.8,-10.3 5.3,-21.2 h 9.6 q -3.6,14.7 -8,28.3 -4.4,13.5 -9.5,25.3 -2,4.5 -4.2,7.7 -2.1,3.3 -4.7,5.4 -2.6,2.1 -5.9,3.1 -3.2,1 -7.3,1 -1.1,0 -2.3,-0.2 -1.2,-0.1 -2.4,-0.4 -1.1,-0.2 -2.1,-0.5 -0.9,-0.3 -1.3,-0.5 z"
         id="path21" />
      <path
         d="m 377.44998,436.8 q 3.3,0 5.8,-0.1 2.6,-0.2 4.3,-0.6 v -15.5 q -1,-0.5 -3.3,-0.8 -2.2,-0.4 -5.4,-0.4 -2.1,0 -4.5,0.3 -2.3,0.3 -4.3,1.3 -1.9,0.9 -3.2,2.6 -1.3,1.6 -1.3,4.3 0,5 3.2,7 3.2,1.9 8.7,1.9 z m -0.8,-46.6 q 5.6,0 9.4,1.5 3.9,1.4 6.2,4.1 2.4,2.6 3.4,6.3 1,3.6 1,8 v 32.5 q -1.2,0.2 -3.4,0.6 -2.1,0.3 -4.8,0.6 -2.7,0.3 -5.9,0.5 -3.1,0.3 -6.2,0.3 -4.4,0 -8.1,-0.9 -3.7,-0.9 -6.4,-2.8 -2.7,-2 -4.2,-5.2 -1.5,-3.2 -1.5,-7.7 0,-4.3 1.7,-7.4 1.8,-3.1 4.8,-5 3,-1.9 7,-2.8 4,-0.9 8.4,-0.9 1.4,0 2.9,0.2 1.5,0.1 2.8,0.4 1.4,0.2 2.4,0.4 1,0.2 1.4,0.3 v -2.6 q 0,-2.3 -0.5,-4.5 -0.5,-2.3 -1.8,-4 -1.3,-1.8 -3.6,-2.8 -2.2,-1.1 -5.8,-1.1 -4.6,0 -8.1,0.7 -3.4,0.6 -5.1,1.3 l -1.1,-7.7 q 1.8,-0.8 6,-1.5 4.2,-0.8 9.1,-0.8 z"
         id="path23" />
      <path
         d="m 412.62992,443.5 v -69.3 h 42.3 v 8.3 h -32.6 v 20.6 h 29 v 8.1 h -29 v 24 h 35.1 v 8.3 z"
         id="path25" />
      <path
         d="m 499.81983,443.5 q -1.1,-2.2 -2.7,-4.9 -1.6,-2.7 -3.5,-5.5 -1.9,-2.9 -3.9,-5.7 -2,-2.8 -3.9,-5.3 -1.9,2.5 -3.9,5.4 -2,2.8 -3.9,5.7 -1.8,2.8 -3.4,5.5 -1.6,2.7 -2.7,4.8 h -9.6 q 3.5,-6.8 8.3,-13.8 4.9,-7.1 9.7,-13.5 l -17.2,-24.7 h 10.5 l 12.4,18.2 12.5,-18.2 h 9.9 l -16.8,24.1 q 4.8,6.5 9.8,13.8 5.1,7.2 8.6,14.1 z"
         id="path27" />
      <path
         d="m 556.55979,417.6 q 0,-9.1 -4.5,-14 -4.5,-4.9 -12,-4.9 -4.2,0 -6.6,0.3 -2.3,0.3 -3.7,0.7 v 32.8 q 1.7,1.4 4.9,2.7 3.2,1.3 7,1.3 4,0 6.8,-1.4 2.9,-1.5 4.7,-4 1.8,-2.6 2.6,-6 0.8,-3.5 0.8,-7.5 z m 9.7,0 q 0,5.9 -1.6,10.9 -1.5,5 -4.5,8.6 -3,3.6 -7.4,5.6 -4.3,2 -9.9,2 -4.5,0 -8,-1.2 -3.4,-1.2 -5.1,-2.3 V 462 h -9.3 v -68.9 q 3.3,-0.8 8.2,-1.7 5,-1 11.5,-1 6,0 10.8,1.9 4.8,1.9 8.2,5.4 3.4,3.5 5.2,8.6 1.9,5 1.9,11.3 z"
         id="path29" />
      <path
         d="m 625.96987,374.2 v 8.4 h -21.8 v 60.9 h -9.7 v -60.9 h -21.8 v -8.4 z"
         id="path31" />
      <path
         d="m 633.55992,417.6 q 0,-6.9 2,-12 2,-5.2 5.3,-8.6 3.3,-3.4 7.6,-5.1 4.3,-1.7 8.8,-1.7 10.5,0 16.1,6.6 5.6,6.5 5.6,19.9 0,0.6 0,1.6 0,0.9 -0.1,1.7 h -35.6 q 0.6,8.1 4.7,12.3 4.1,4.2 12.8,4.2 4.9,0 8.2,-0.8 3.4,-0.9 5.1,-1.7 l 1.3,7.8 q -1.7,0.9 -6,1.9 -4.2,1 -9.6,1 -6.8,0 -11.8,-2 -4.9,-2.1 -8.1,-5.7 -3.2,-3.6 -4.8,-8.5 -1.5,-5 -1.5,-10.9 z m 35.7,-5.1 q 0.1,-6.3 -3.2,-10.3 -3.2,-4.1 -8.9,-4.1 -3.2,0 -5.7,1.3 -2.4,1.2 -4.1,3.2 -1.7,2 -2.7,4.6 -0.9,2.6 -1.2,5.3 z"
         id="path33" />
      <path
         d="m 714.92991,444.7 q -6.3,0 -11.1,-2 -4.7,-2 -8,-5.6 -3.2,-3.6 -4.8,-8.5 -1.6,-5 -1.6,-11 0,-6 1.7,-11 1.8,-5 5,-8.6 3.2,-3.7 7.8,-5.7 4.7,-2.1 10.4,-2.1 3.5,0 7,0.6 3.5,0.6 6.7,1.9 l -2.1,7.9 q -2.1,-1 -4.9,-1.6 -2.7,-0.6 -5.8,-0.6 -7.8,0 -12,4.9 -4.1,4.9 -4.1,14.3 0,4.2 0.9,7.7 1,3.5 3,6 2.1,2.5 5.3,3.9 3.2,1.3 7.8,1.3 3.7,0 6.7,-0.7 3,-0.7 4.7,-1.5 l 1.3,7.8 q -0.8,0.5 -2.3,1 -1.5,0.4 -3.4,0.7 -1.9,0.4 -4.1,0.6 -2.1,0.3 -4.1,0.3 z"
         id="path35" />
      <path
         d="m 739.69994,443.5 v -76 l 9.3,-1.6 v 26.6 q 2.6,-1 5.5,-1.5 3,-0.6 5.9,-0.6 6.2,0 10.3,1.8 4.1,1.7 6.5,4.9 2.5,3.1 3.5,7.5 1,4.4 1,9.7 v 29.2 h -9.3 v -27.2 q 0,-4.8 -0.7,-8.2 -0.6,-3.4 -2.1,-5.5 -1.5,-2.1 -4,-3 -2.5,-1 -6.2,-1 -1.5,0 -3.1,0.2 -1.6,0.2 -3.1,0.5 -1.4,0.2 -2.6,0.5 -1.1,0.3 -1.6,0.5 v 43.2 z"
         id="path37" />
    </g>
    <g
       aria-label="&lt;/&gt;"
       id="text68608"
       style="font-weight:300;font-size:84px;line-height:1.25;font-family:Ubuntu;-inkscape-font-specification:'Ubuntu Light';letter-spacing:0.38px;fill:#ffffff">
      <path
         d="m 460.21207,680.57997 31.668,13.272 -1.68,4.62 -36.372,-15.456 v -4.872 l 36.372,-15.456 1.68,4.62 z"
         id="path153" />
      <path
         d="m 500.956,720.31197 h -5.544 l 28.644,-81.312 h 5.376 z"
         id="path155" />
      <path
         d="m 532.11994,667.30797 1.68,-4.62 36.372,15.456 v 4.872 l -36.372,15.456 -1.68,-4.62 31.668,-13.272 z"
         id="path157" />
    </g>
    <rect
       id="rect89846"
       width="512"
       height="12"
       x="256"
       y="506.01517"
       style="stroke:none;stroke-opacity:1;fill:#ffffff;fill-opacity:1" />
    <rect
       id="rect90159"
       width="688.05109"
       height="688.05109"
       x="-344.02554"
       y="380.05179"
       style="fill:none;stroke:#ffffff;stroke-width:12.0009;stroke-miterlimit:4;stroke-dasharray:none;stroke-opacity:1"
       transform="rotate(-45)" />
    <circle
       style="fill:#ffffff;fill-opacity:1;stroke:none;stroke-width:15.4188;stroke-miterlimit:4;stroke-dasharray:none;stroke-opacity:1"
       id="path152656"
       cx="512"
       cy="111.85482"
       r="20" />
    <circle
       style="fill:#ffffff;fill-opacity:1;stroke:none;stroke-width:15.4188;stroke-miterlimit:4;stroke-dasharray:none;stroke-opacity:1"
       id="circle152788"
       cx="512"
       cy="-912.1452"
       r="20"
       transform="scale(1,-1)" />
    <g
       id="g156891"
       transform="translate(-0.193355)"
       style="stroke:#ffffff;stroke-opacity:1">
      <path
         id="rect152898"
         style="fill:none;stroke:#ffffff;stroke-width:9.9688;stroke-opacity:1"
         d="m 435.82617,578.58789 c -9.73926,0 -17.56107,7.8027 -17.58008,17.49609 l -0.0254,13.4375 V 746.25977 H 606.16602 V 609.52148 l -0.0254,-13.4375 c -0.019,-9.69339 -7.84081,-17.49609 -17.58007,-17.49609 z" />
      <path
         id="rect155409"
         style="fill:none;stroke:#ffffff;stroke-width:9.9688;stroke-opacity:1"
         d="M 418.22064,609.52246 H 606.1664"
         sodipodi:nodetypes="cc" />
    </g>
  </g>
</svg>
